<svg id="图层_1" data-name="图层 1" xmlns="http://www.w3.org/2000/svg" xmlns:xlink="http://www.w3.org/1999/xlink" viewBox="0 0 130 20"><defs><style>.cls-1{fill:#fcfcfc;}.cls-2,.cls-4,.cls-5{stroke:#d5d5d5;}.cls-2{fill:url(#未命名的渐变_21);}.cls-3{fill:url(#未命名的渐变_45);stroke:url(#未命名的渐变_55);}.cls-4{fill:url(#未命名的渐变_21-2);}.cls-5{fill:url(#未命名的渐变);}.cls-6,.cls-7,.cls-8{isolation:isolate;font-size:11px;font-family:AdobeSongStd-Light-GBpc-EUC-H, Adobe Song Std;}.cls-6{fill:#f9f9f9;}.cls-7{fill:#333;}.cls-8{fill:#fff;}.cls-9{fill:#1296db;}</style><linearGradient id="未命名的渐变_21" x1="98" y1="19.5" x2="98" y2="0.5" gradientUnits="userSpaceOnUse"><stop offset="0" stop-color="#e5e5e5"/><stop offset="1" stop-color="#fff"/></linearGradient><linearGradient id="未命名的渐变_45" x1="67.25" y1="12.5" x2="67.25" y2="7.5" gradientUnits="userSpaceOnUse"><stop offset="0" stop-color="#6a0000"/><stop offset="1" stop-color="#020202"/></linearGradient><linearGradient id="未命名的渐变_55" x1="67.25" y1="13" x2="67.25" y2="7" gradientUnits="userSpaceOnUse"><stop offset="0" stop-color="#eee"/><stop offset="1" stop-color="#f6f6f6"/></linearGradient><linearGradient id="未命名的渐变_21-2" x1="65" y1="13.5" x2="65" y2="6.5" xlink:href="#未命名的渐变_21"/><linearGradient id="未命名的渐变" x1="-235.5" y1="386.74" x2="-235.5" y2="385.74" gradientTransform="matrix(60, 0, 0, -19, 14160.5, 7348.5)" gradientUnits="userSpaceOnUse"><stop offset="0" stop-color="#fcfcfc" stop-opacity="0"/><stop offset="1" stop-opacity="0.1"/></linearGradient></defs><rect class="cls-1" x="0.5" y="0.5" width="60" height="19" rx="2"/><rect class="cls-2" x="66.5" y="0.5" width="63" height="19" rx="2"/><rect class="cls-3" x="67" y="7.5" width="0.5" height="5"/><path class="cls-4" d="M66.5,6.5l-3,3v1l3,3"/><rect id="llink" class="cls-5" x="0.5" y="0.5" width="60" height="19" rx="2"/><text class="cls-6" transform="translate(24.13 15)">沐子曦</text><text class="cls-7" transform="translate(23.13 14)">沐子曦</text><text class="cls-8" transform="translate(71.88 15)">上班摸鱼中</text><text id="rlink" class="cls-7" transform="translate(70.88 14)">上班摸鱼中</text><path class="cls-9" d="M3.16,14.13l1.47,2.54a1.74,1.74,0,0,0,1.56,1h9.72l-2-3.5Zm17-.93L14.52,3.3A1.74,1.74,0,0,0,13,2.37H10l8.76,15.25,1.39-2.41a1.82,1.82,0,0,0,.07-2Zm-7.73-1.55L8.53,4.84,4.59,11.65Z"/></svg>